<?xml version="1.0" encoding="UTF-8" standalone="no"?>
<!-- Created with Inkscape (http://www.inkscape.org/) -->

<svg
   xmlns:dc="http://purl.org/dc/elements/1.1/"
   xmlns:cc="http://creativecommons.org/ns#"
   xmlns:rdf="http://www.w3.org/1999/02/22-rdf-syntax-ns#"
   xmlns:svg="http://www.w3.org/2000/svg"
   xmlns="http://www.w3.org/2000/svg"
   xmlns:xlink="http://www.w3.org/1999/xlink"
   xmlns:sodipodi="http://sodipodi.sourceforge.net/DTD/sodipodi-0.dtd"
   xmlns:inkscape="http://www.inkscape.org/namespaces/inkscape"
   id="svg2"
   sodipodi:docname="laika.svg"
   xml:space="preserve"
   viewBox="0 0 256 256"
   version="1.1"
   inkscape:version="0.92.2 5c3e80d, 2017-08-06"
   width="256"
   height="256"><defs
     id="defs6"><linearGradient
       inkscape:collect="always"
       id="linearGradient3500"><stop
         style="stop-color:#1f4555;stop-opacity:1"
         offset="0"
         id="stop3496" /><stop
         style="stop-color:#0012f2;stop-opacity:1"
         offset="1"
         id="stop3498" /></linearGradient><linearGradient
       inkscape:collect="always"
       id="linearGradient3492"><stop
         style="stop-color:#ae1d1d;stop-opacity:1;"
         offset="0"
         id="stop3488" /><stop
         style="stop-color:#ae1d1d;stop-opacity:0;"
         offset="1"
         id="stop3490" /></linearGradient><linearGradient
       inkscape:collect="always"
       id="linearGradient3482"><stop
         style="stop-color:#ce0202;stop-opacity:0.75355452"
         offset="0"
         id="stop3478" /><stop
         style="stop-color:#ae1d1d;stop-opacity:0"
         offset="1"
         id="stop3480" /></linearGradient><linearGradient
       inkscape:collect="always"
       id="linearGradient3474"><stop
         style="stop-color:#181818;stop-opacity:1"
         offset="0"
         id="stop3470" /><stop
         style="stop-color:#010101;stop-opacity:1"
         offset="1"
         id="stop3472" /></linearGradient><linearGradient
       inkscape:collect="always"
       id="linearGradient3466"><stop
         style="stop-color:#676767;stop-opacity:1"
         offset="0"
         id="stop3462" /><stop
         style="stop-color:#000000;stop-opacity:1"
         offset="1"
         id="stop3464" /></linearGradient><linearGradient
       inkscape:collect="always"
       id="linearGradient3454"><stop
         style="stop-color:#906767;stop-opacity:1"
         offset="0"
         id="stop3450" /><stop
         id="stop3458"
         offset="0.15154444"
         style="stop-color:#674848;stop-opacity:1;" /><stop
         style="stop-color:#2a1313;stop-opacity:1"
         offset="1"
         id="stop3452" /></linearGradient><linearGradient
       inkscape:collect="always"
       id="linearGradient3442"><stop
         style="stop-color:#be3838;stop-opacity:1"
         offset="0"
         id="stop3438" /><stop
         id="stop3446"
         offset="0.69451094"
         style="stop-color:#eb5656;stop-opacity:1" /><stop
         style="stop-color:#ee9e9e;stop-opacity:1"
         offset="1"
         id="stop3440" /></linearGradient><marker
       inkscape:stockid="Arrow1Lstart"
       orient="auto"
       refY="0.0"
       refX="0.0"
       id="marker3238"
       style="overflow:visible"
       inkscape:isstock="true"><path
         id="path3236"
         d="M 0.0,0.0 L 5.0,-5.0 L -12.5,0.0 L 5.0,5.0 L 0.0,0.0 z "
         style="fill-rule:evenodd;stroke:#321b28;stroke-width:1pt;stroke-opacity:1;fill:#d40000;fill-opacity:1"
         transform="scale(0.8) translate(12.5,0)" /></marker><marker
       inkscape:stockid="Arrow1Lstart"
       orient="auto"
       refY="0.0"
       refX="0.0"
       id="marker3126"
       style="overflow:visible"
       inkscape:isstock="true"><path
         id="path3124"
         d="M 0.0,0.0 L 5.0,-5.0 L -12.5,0.0 L 5.0,5.0 L 0.0,0.0 z "
         style="fill-rule:evenodd;stroke:none;stroke-width:1pt;stroke-opacity:1;fill:#d40000;fill-opacity:1"
         transform="scale(0.8) translate(12.5,0)" /></marker><marker
       inkscape:stockid="Arrow1Lstart"
       orient="auto"
       refY="0.0"
       refX="0.0"
       id="marker3020"
       style="overflow:visible"
       inkscape:isstock="true"><path
         id="path3018"
         d="M 0.0,0.0 L 5.0,-5.0 L -12.5,0.0 L 5.0,5.0 L 0.0,0.0 z "
         style="fill-rule:evenodd;stroke:none;stroke-width:1pt;stroke-opacity:1;fill:#d40000;fill-opacity:1"
         transform="scale(0.8) translate(12.5,0)" /></marker><marker
       inkscape:stockid="Arrow1Lstart"
       orient="auto"
       refY="0.0"
       refX="0.0"
       id="marker2920"
       style="overflow:visible"
       inkscape:isstock="true"><path
         id="path2918"
         d="M 0.0,0.0 L 5.0,-5.0 L -12.5,0.0 L 5.0,5.0 L 0.0,0.0 z "
         style="fill-rule:evenodd;stroke:none;stroke-width:1pt;stroke-opacity:1;fill:#d40000;fill-opacity:1"
         transform="scale(0.8) translate(12.5,0)" /></marker><marker
       inkscape:stockid="Arrow1Lstart"
       orient="auto"
       refY="0.0"
       refX="0.0"
       id="marker2826"
       style="overflow:visible"
       inkscape:isstock="true"><path
         id="path2824"
         d="M 0.0,0.0 L 5.0,-5.0 L -12.5,0.0 L 5.0,5.0 L 0.0,0.0 z "
         style="fill-rule:evenodd;stroke:none;stroke-width:1pt;stroke-opacity:1;fill:#d40000;fill-opacity:1"
         transform="scale(0.8) translate(12.5,0)" /></marker><marker
       inkscape:stockid="Arrow1Lstart"
       orient="auto"
       refY="0.0"
       refX="0.0"
       id="marker2738"
       style="overflow:visible"
       inkscape:isstock="true"><path
         id="path2736"
         d="M 0.0,0.0 L 5.0,-5.0 L -12.5,0.0 L 5.0,5.0 L 0.0,0.0 z "
         style="fill-rule:evenodd;stroke:none;stroke-width:1pt;stroke-opacity:1;fill:#d40000;fill-opacity:1"
         transform="scale(0.8) translate(12.5,0)" /></marker><marker
       inkscape:stockid="Arrow1Lstart"
       orient="auto"
       refY="0.0"
       refX="0.0"
       id="marker2656"
       style="overflow:visible"
       inkscape:isstock="true"><path
         id="path2654"
         d="M 0.0,0.0 L 5.0,-5.0 L -12.5,0.0 L 5.0,5.0 L 0.0,0.0 z "
         style="fill-rule:evenodd;stroke:none;stroke-width:1pt;stroke-opacity:1;fill:#d40000;fill-opacity:1"
         transform="scale(0.8) translate(12.5,0)" /></marker><marker
       inkscape:stockid="Arrow1Lstart"
       orient="auto"
       refY="0.0"
       refX="0.0"
       id="marker2580"
       style="overflow:visible"
       inkscape:isstock="true"><path
         id="path2578"
         d="M 0.0,0.0 L 5.0,-5.0 L -12.5,0.0 L 5.0,5.0 L 0.0,0.0 z "
         style="fill-rule:evenodd;stroke:none;stroke-width:1pt;stroke-opacity:1;fill:#d40000;fill-opacity:1"
         transform="scale(0.8) translate(12.5,0)" /></marker><marker
       inkscape:stockid="Arrow1Lstart"
       orient="auto"
       refY="0.0"
       refX="0.0"
       id="marker2510"
       style="overflow:visible"
       inkscape:isstock="true"><path
         id="path2508"
         d="M 0.0,0.0 L 5.0,-5.0 L -12.5,0.0 L 5.0,5.0 L 0.0,0.0 z "
         style="fill-rule:evenodd;stroke:none;stroke-width:1pt;stroke-opacity:1;fill:#d40000;fill-opacity:1"
         transform="scale(0.8) translate(12.5,0)" /></marker><marker
       inkscape:stockid="Arrow1Lstart"
       orient="auto"
       refY="0.0"
       refX="0.0"
       id="marker2446"
       style="overflow:visible"
       inkscape:isstock="true"><path
         id="path2444"
         d="M 0.0,0.0 L 5.0,-5.0 L -12.5,0.0 L 5.0,5.0 L 0.0,0.0 z "
         style="fill-rule:evenodd;stroke:none;stroke-width:1pt;stroke-opacity:1;fill:#d40000;fill-opacity:1"
         transform="scale(0.8) translate(12.5,0)" /></marker><marker
       inkscape:stockid="Arrow1Lstart"
       orient="auto"
       refY="0.0"
       refX="0.0"
       id="marker2388"
       style="overflow:visible"
       inkscape:isstock="true"><path
         id="path2386"
         d="M 0.0,0.0 L 5.0,-5.0 L -12.5,0.0 L 5.0,5.0 L 0.0,0.0 z "
         style="fill-rule:evenodd;stroke:none;stroke-width:1pt;stroke-opacity:1;fill:#d40000;fill-opacity:1"
         transform="scale(0.8) translate(12.5,0)" /></marker><marker
       inkscape:stockid="Arrow1Lstart"
       orient="auto"
       refY="0.0"
       refX="0.0"
       id="marker2336"
       style="overflow:visible"
       inkscape:isstock="true"><path
         id="path2334"
         d="M 0.0,0.0 L 5.0,-5.0 L -12.5,0.0 L 5.0,5.0 L 0.0,0.0 z "
         style="fill-rule:evenodd;stroke:none;stroke-width:1pt;stroke-opacity:1;fill:#d40000;fill-opacity:1"
         transform="scale(0.8) translate(12.5,0)" /></marker><marker
       inkscape:stockid="Arrow1Lstart"
       orient="auto"
       refY="0.0"
       refX="0.0"
       id="marker2290"
       style="overflow:visible"
       inkscape:isstock="true"><path
         id="path2288"
         d="M 0.0,0.0 L 5.0,-5.0 L -12.5,0.0 L 5.0,5.0 L 0.0,0.0 z "
         style="fill-rule:evenodd;stroke:none;stroke-width:1pt;stroke-opacity:1;fill:#d40000;fill-opacity:1"
         transform="scale(0.8) translate(12.5,0)" /></marker><marker
       inkscape:stockid="Arrow1Lstart"
       orient="auto"
       refY="0.0"
       refX="0.0"
       id="marker2250"
       style="overflow:visible"
       inkscape:isstock="true"><path
         id="path2248"
         d="M 0.0,0.0 L 5.0,-5.0 L -12.5,0.0 L 5.0,5.0 L 0.0,0.0 z "
         style="fill-rule:evenodd;stroke:none;stroke-width:1pt;stroke-opacity:1;fill:#d40000;fill-opacity:1"
         transform="scale(0.8) translate(12.5,0)" /></marker><marker
       inkscape:stockid="Arrow1Lstart"
       orient="auto"
       refY="0.0"
       refX="0.0"
       id="marker2216"
       style="overflow:visible"
       inkscape:isstock="true"><path
         id="path2214"
         d="M 0.0,0.0 L 5.0,-5.0 L -12.5,0.0 L 5.0,5.0 L 0.0,0.0 z "
         style="fill-rule:evenodd;stroke:none;stroke-width:1pt;stroke-opacity:1;fill:#d40000;fill-opacity:1"
         transform="scale(0.8) translate(12.5,0)" /></marker><marker
       inkscape:stockid="Arrow1Lstart"
       orient="auto"
       refY="0.0"
       refX="0.0"
       id="marker2188"
       style="overflow:visible"
       inkscape:isstock="true"><path
         id="path2186"
         d="M 0.0,0.0 L 5.0,-5.0 L -12.5,0.0 L 5.0,5.0 L 0.0,0.0 z "
         style="fill-rule:evenodd;stroke:none;stroke-width:1pt;stroke-opacity:1;fill:#d40000;fill-opacity:1"
         transform="scale(0.8) translate(12.5,0)" /></marker><marker
       inkscape:stockid="Arrow1Lstart"
       orient="auto"
       refY="0.0"
       refX="0.0"
       id="marker2166"
       style="overflow:visible"
       inkscape:isstock="true"><path
         id="path2164"
         d="M 0.0,0.0 L 5.0,-5.0 L -12.5,0.0 L 5.0,5.0 L 0.0,0.0 z "
         style="fill-rule:evenodd;stroke:none;stroke-width:1pt;stroke-opacity:1;fill:#d40000;fill-opacity:1"
         transform="scale(0.8) translate(12.5,0)" /></marker><marker
       inkscape:stockid="Arrow1Lstart"
       orient="auto"
       refY="0.0"
       refX="0.0"
       id="Arrow1Lstart"
       style="overflow:visible"
       inkscape:isstock="true"><path
         id="path1888"
         d="M 0.0,0.0 L 5.0,-5.0 L -12.5,0.0 L 5.0,5.0 L 0.0,0.0 z "
         style="fill-rule:evenodd;stroke:none;stroke-width:1pt;stroke-opacity:1;fill:#d40000;fill-opacity:1"
         transform="scale(0.8) translate(12.5,0)" /></marker><linearGradient
       inkscape:collect="always"
       id="linearGradient1880"><stop
         style="stop-color:#d5b8b8;stop-opacity:1"
         offset="0"
         id="stop1876" /><stop
         id="stop1884"
         offset="0.1604771"
         style="stop-color:#e6d0dc;stop-opacity:1" /><stop
         style="stop-color:#f9f4f1;stop-opacity:1"
         offset="0.251315"
         id="stop1886" /><stop
         id="stop3460"
         offset="0.88475019"
         style="stop-color:#f6f0ec;stop-opacity:1;" /><stop
         style="stop-color:#e7d7cc;stop-opacity:1"
         offset="1"
         id="stop1878" /></linearGradient><clipPath
       id="clipPath80"
       clipPathUnits="userSpaceOnUse"><path
         id="path82"
         d="m 791,1003 h 438 v 187 H 791 Z"
         inkscape:connector-curvature="0" /></clipPath><clipPath
       id="clipPath84"
       clipPathUnits="userSpaceOnUse"><path
         id="path86"
         d="m 791.27,1003.8 h 437.54 v 185.5 H 791.27 Z"
         inkscape:connector-curvature="0" /></clipPath><clipPath
       id="clipPath106"
       clipPathUnits="userSpaceOnUse"><path
         id="path108"
         d="M 0,2200 H 1700 V 0 H 0 Z"
         inkscape:connector-curvature="0" /></clipPath><clipPath
       id="clipPath112"
       clipPathUnits="userSpaceOnUse"><path
         id="path114"
         d="M 0,0 H 1700 V 2200 H 0 Z"
         inkscape:connector-curvature="0" /></clipPath><clipPath
       id="clipPath118"
       clipPathUnits="userSpaceOnUse"><path
         id="path120"
         d="m 323,1880 h 65 v 80 h -65 z"
         inkscape:connector-curvature="0" /></clipPath><clipPath
       id="clipPath122"
       clipPathUnits="userSpaceOnUse"><path
         id="path124"
         d="m 323.82,1880 h 63.259 v 79.4 H 323.82 Z"
         inkscape:connector-curvature="0" /></clipPath><clipPath
       id="clipPath154"
       clipPathUnits="userSpaceOnUse"><path
         id="path156"
         d="m 522,1935 h 59 v 96 h -59 z"
         inkscape:connector-curvature="0" /></clipPath><clipPath
       id="clipPath158"
       clipPathUnits="userSpaceOnUse"><path
         id="path160"
         d="m 522.59,1935.6 h 57.838 v 95.15 H 522.59 Z"
         inkscape:connector-curvature="0" /></clipPath><clipPath
       id="clipPath216"
       clipPathUnits="userSpaceOnUse"><path
         id="path218"
         d="m 393,1571 h 205 v 191 H 393 Z"
         inkscape:connector-curvature="0" /></clipPath><clipPath
       id="clipPath220"
       clipPathUnits="userSpaceOnUse"><path
         id="path222"
         d="m 393.2,1571.8 h 203.91 v 190.02 H 393.2 Z"
         inkscape:connector-curvature="0" /></clipPath><clipPath
       id="clipPath292"
       clipPathUnits="userSpaceOnUse"><path
         id="path294"
         d="m 829,1115 h 151 v 317 H 829 Z"
         inkscape:connector-curvature="0" /></clipPath><clipPath
       id="clipPath296"
       clipPathUnits="userSpaceOnUse"><path
         id="path298"
         d="m 829.91,1115.2 h 149.2 v 316.53 h -149.2 z"
         inkscape:connector-curvature="0" /></clipPath><clipPath
       id="clipPath360"
       clipPathUnits="userSpaceOnUse"><path
         id="path362"
         d="M 0,2200 H 1700 V 0 H 0 Z"
         inkscape:connector-curvature="0" /></clipPath><clipPath
       id="clipPath366"
       clipPathUnits="userSpaceOnUse"><path
         id="path368"
         d="M 0,0 H 1700 V 2200 H 0 Z"
         inkscape:connector-curvature="0" /></clipPath><clipPath
       id="clipPath372"
       clipPathUnits="userSpaceOnUse"><path
         id="path374"
         d="m 1052,1616 h 93 v 116 h -93 z"
         inkscape:connector-curvature="0" /></clipPath><clipPath
       id="clipPath376"
       clipPathUnits="userSpaceOnUse"><path
         id="path378"
         d="m 1052.9,1616.2 h 91.43 V 1731 h -91.43 z"
         inkscape:connector-curvature="0" /></clipPath><clipPath
       id="clipPath396"
       clipPathUnits="userSpaceOnUse"><path
         id="path398"
         d="M 0,2200 H 1700 V 0 H 0 Z"
         inkscape:connector-curvature="0" /></clipPath><clipPath
       id="clipPath402"
       clipPathUnits="userSpaceOnUse"><path
         id="path404"
         d="M 0,0 H 1700 V 2200 H 0 Z"
         inkscape:connector-curvature="0" /></clipPath><clipPath
       id="clipPath408"
       clipPathUnits="userSpaceOnUse"><path
         id="path410"
         d="m 706,1688 h 71 v 128 h -71 z"
         inkscape:connector-curvature="0" /></clipPath><clipPath
       id="clipPath412"
       clipPathUnits="userSpaceOnUse"><path
         id="path414"
         d="m 706.25,1688.1 h 70.701 v 127.14 H 706.25 Z"
         inkscape:connector-curvature="0" /></clipPath><clipPath
       id="clipPath448"
       clipPathUnits="userSpaceOnUse"><path
         id="path450"
         d="m 503.88,1612.6 h 153.97 v 50.75 H 503.88 Z"
         inkscape:connector-curvature="0" /></clipPath><radialGradient
       id="radialGradient2840"
       gradientUnits="userSpaceOnUse"
       cy="395.97"
       cx="261.26999"
       gradientTransform="matrix(0.4128,1.8355,-2.9535,0.66413,1308.8,-332.31)"
       r="157.81"><stop
         id="stop2836"
         stop-color="#0d1a2f"
         offset="0" /><stop
         id="stop2838"
         stop-color="#1d3c6a"
         offset="1" /></radialGradient><filter
       id="filter4839"
       inkscape:menu="Overlays"
       inkscape:menu-tooltip="Flake-like white splotches"
       inkscape:label="Frost"
       style="color-interpolation-filters:sRGB"><feTurbulence
         id="feTurbulence4841"
         numOctaves="5"
         type="fractalNoise"
         baseFrequency="0.143" /><feColorMatrix
         id="feColorMatrix4843"
         values="1 0 0 0 0 0 1 0 0 0 0 0 1 0 0 0 0 0 5 -3"
         result="result1" /><feComposite
         id="feComposite4845"
         operator="in"
         in2="SourceAlpha" /><feMorphology
         id="feMorphology4847"
         operator="dilate"
         radius="2.7"
         result="result3" /><feTurbulence
         id="feTurbulence4849"
         numOctaves="2"
         baseFrequency="0.121"
         result="result91" /><feDisplacementMap
         id="feDisplacementMap4851"
         scale="10"
         yChannelSelector="A"
         in2="result91"
         result="result4"
         xChannelSelector="R"
         in="result3" /><feFlood
         id="feFlood4853"
         result="result92"
         flood-color="rgb(255,255,255)" /><feComposite
         id="feComposite4855"
         operator="in"
         in2="result4"
         result="result2" /><feComposite
         id="feComposite4857"
         operator="over"
         in2="SourceGraphic"
         in="result2" /></filter><filter
       id="filter4859"
       inkscape:menu="Overlays"
       inkscape:menu-tooltip="Flake-like white splotches"
       inkscape:label="Frost"
       style="color-interpolation-filters:sRGB"><feTurbulence
         id="feTurbulence4861"
         numOctaves="5"
         type="fractalNoise"
         baseFrequency="0.143" /><feColorMatrix
         id="feColorMatrix4863"
         values="1 0 0 0 0 0 1 0 0 0 0 0 1 0 0 0 0 0 5 -3"
         result="result1" /><feComposite
         id="feComposite4865"
         operator="in"
         in2="SourceAlpha" /><feMorphology
         id="feMorphology4867"
         operator="dilate"
         radius="2.7"
         result="result3" /><feTurbulence
         id="feTurbulence4869"
         numOctaves="2"
         baseFrequency="0.121"
         result="result91" /><feDisplacementMap
         id="feDisplacementMap4871"
         scale="10"
         yChannelSelector="A"
         in2="result91"
         result="result4"
         xChannelSelector="R"
         in="result3" /><feFlood
         id="feFlood4873"
         result="result92"
         flood-color="rgb(255,255,255)" /><feComposite
         id="feComposite4875"
         operator="in"
         in2="result4"
         result="result2" /><feComposite
         id="feComposite4877"
         operator="over"
         in2="SourceGraphic"
         in="result2" /></filter><clipPath
       clipPathUnits="userSpaceOnUse"
       id="clipPath1118"><rect
         style="fill:#000000;fill-opacity:1;stroke:none;stroke-width:23.26599503;stroke-linejoin:round;stroke-miterlimit:4;stroke-dasharray:none;stroke-opacity:1;paint-order:fill markers stroke"
         id="rect1120"
         width="595.6095"
         height="595.6095"
         x="243.42979"
         y="-1787.7758"
         transform="scale(1,-1)" /></clipPath><linearGradient
       inkscape:collect="always"
       xlink:href="#linearGradient1880"
       id="linearGradient1882"
       x1="342.32556"
       y1="1729.8408"
       x2="587.45544"
       y2="1196.1467"
       gradientUnits="userSpaceOnUse" /><linearGradient
       inkscape:collect="always"
       xlink:href="#linearGradient3442"
       id="linearGradient3444"
       x1="540.73193"
       y1="1378.441"
       x2="621.23218"
       y2="1362.3652"
       gradientUnits="userSpaceOnUse" /><linearGradient
       inkscape:collect="always"
       xlink:href="#linearGradient3454"
       id="linearGradient3456"
       x1="359.93201"
       y1="1638.299"
       x2="1147.2637"
       y2="1437.4548"
       gradientUnits="userSpaceOnUse" /><linearGradient
       inkscape:collect="always"
       xlink:href="#linearGradient3466"
       id="linearGradient3468"
       x1="355.10001"
       y1="1436.9"
       x2="411.06888"
       y2="1403.2406"
       gradientUnits="userSpaceOnUse" /><linearGradient
       inkscape:collect="always"
       xlink:href="#linearGradient3474"
       id="linearGradient3476"
       x1="452.31958"
       y1="1326.7094"
       x2="502.55618"
       y2="1358.8611"
       gradientUnits="userSpaceOnUse" /><linearGradient
       inkscape:collect="always"
       xlink:href="#linearGradient3482"
       id="linearGradient3486"
       gradientUnits="userSpaceOnUse"
       x1="325.85999"
       y1="1948.5"
       x2="382.26224"
       y2="1882.746" /><linearGradient
       inkscape:collect="always"
       xlink:href="#linearGradient3492"
       id="linearGradient3494"
       x1="523.22998"
       y1="2028.3"
       x2="580.427"
       y2="1935.6541"
       gradientUnits="userSpaceOnUse" /><linearGradient
       inkscape:collect="always"
       xlink:href="#linearGradient3500"
       id="linearGradient3502"
       x1="452.84299"
       y1="1536.3474"
       x2="483.74646"
       y2="1487.3162"
       gradientUnits="userSpaceOnUse" /><linearGradient
       inkscape:collect="always"
       xlink:href="#linearGradient3500"
       id="linearGradient3510"
       x1="357.77002"
       y1="1514.5508"
       x2="387.87109"
       y2="1466.3234"
       gradientUnits="userSpaceOnUse" /></defs><sodipodi:namedview
     id="namedview4"
     bordercolor="#666666"
     inkscape:pageshadow="2"
     guidetolerance="10"
     pagecolor="#ffffff"
     gridtolerance="10"
     inkscape:window-maximized="1"
     inkscape:zoom="0.72363282"
     objecttolerance="10"
     borderopacity="1"
     inkscape:current-layer="g1108"
     inkscape:cx="106.38404"
     inkscape:cy="-17.527996"
     inkscape:window-y="1"
     inkscape:window-x="0"
     inkscape:window-width="1680"
     showgrid="false"
     inkscape:pageopacity="0"
     inkscape:window-height="954" /><g
     id="g10"
     inkscape:label="openclipart-coloring-books-2013-03-seasons-holidays"
     inkscape:groupmode="layer"
     transform="matrix(1.25,0,0,-1.25,0,256)"><g
       id="g1108"
       transform="matrix(0.34384947,0,0,0.34384947,-83.703205,-409.92573)"
       clip-path="url(#clipPath1118)"><path
         inkscape:connector-curvature="0"
         style="fill:#000000"
         d="m 818.88,1052.1 c 1.639,-0.409 3.409,-0.824 5.498,-1.269 1.379,-0.29 1.895,-0.316 1.691,-0.277 0.762,-0.155 1.534,-0.277 2.256,-0.423 1.639,-0.318 3.467,-0.797 5.502,-1.128 2.155,-0.357 4.041,-0.489 5.918,-0.705 -2.564,-17.838 -4.203,-31.786 -6.062,-44.263 -4.477,2.732 -9.403,5.829 -13.252,8.036 -4.203,2.405 -6.309,3.295 -9.164,4.789 2.056,13.354 4.745,24.773 7.613,35.24 m 140.98,65.555 c 9.066,-3.824 18.934,-8.137 24.389,-9.868 3.798,-1.208 7.216,-1.828 10.573,-2.256 -2.908,-19.499 -3.761,-36.645 -16.212,-55.545 -14.635,-22.209 -26.936,-41.356 -34.541,-59.776 -2.466,-5.964 -3.479,-11.947 -4.789,-17.904 -0.268,3.101 -0.184,6.106 0.423,8.881 0.01,0.054 -0.008,0.098 0,0.142 7.187,20.667 10.791,42.835 13.257,64.991 h 0.142 c 0.044,0.26 -0.049,0.3 0,0.564 6.379,36.536 4.968,46.338 5.638,61.608 0.309,3.141 0.741,6.106 1.12,9.163 m -465.37,659.5 c -5.4,-0.463 -9.056,-4.886 -10.425,-7.894 -1.367,-3.012 -1.813,-5.596 -2.117,-8.46 -0.62,-5.736 -0.4,-12.313 0,-19.034 0.402,-6.723 1.081,-13.576 1.552,-19.312 0.471,-5.741 0.629,-10.846 0.565,-11.561 -0.139,-1.533 -0.41,-3.108 -0.701,-4.51 -0.573,-2.701 -1.441,-4.99 -2.538,-7.331 -0.67,-1.41 -1.084,-2.256 -1.41,-2.821 -0.638,-1.095 -1.709,-2.47 -3.101,-4.37 -0.905,-1.223 -1.234,-1.639 -0.846,-1.128 -0.055,-0.095 -0.098,-0.189 -0.143,-0.28 l -64.708,16.07 c -5.185,1.291 -10.432,-1.868 -11.719,-7.047 -0.653,-2.608 -0.186,-5.363 1.287,-7.615 2.088,-3.215 3.736,-4.898 5.779,-7.046 -13.301,-0.284 -21.516,3.263 -28.76,5.499 -5.11,1.547 -10.507,-1.341 -12.052,-6.45 -0.934,-3.082 -0.274,-6.422 1.761,-8.915 5.274,-6.441 5.851,-8.378 7.049,-10.574 l -8.457,-3.525 c -3.12,2.614 -6.223,5.171 -9.588,7.895 -3.92,3.19 -7.939,6.56 -12.129,9.87 -9.603,7.604 -19.829,15.417 -29.465,22.983 -3.031,2.376 -7.246,4.127 -11.7,3.661 -4.459,-0.462 -7.912,-2.941 -10.15,-5.498 -4.478,-5.115 -6.203,-11.032 -7.618,-17.482 -2.819,-12.901 -3.181,-27.739 -0.278,-39.051 l 15.513,-60.761 c -5.737,-26.668 -8.366,-54.08 -9.873,-81.629 -0.075,-1.34 -0.049,-1.574 0,-0.703 -0.454,-8.305 -0.965,-16.594 -1.27,-24.954 -0.153,-3.914 2.076,-7.533 5.64,-9.161 -3.411,-23.074 -6.006,-45.083 -5.64,-63.862 0.058,-5.341 4.433,-9.624 9.772,-9.568 2.974,0.03 5.764,1.424 7.573,3.784 0.146,0.194 0.274,0.238 0.423,0.423 1.446,-3.608 2.935,-7.137 4.231,-10.289 1.02,-2.483 2.158,-5.26 3.105,-7.47 0.282,-0.674 0.691,-1.882 1.406,-3.525 0.238,-0.542 0.519,-1.059 0.85,-1.55 0.044,-0.051 0.092,-0.097 0.137,-0.141 7.128,-16.125 13.375,-28.161 20.583,-36.938 7.546,-9.183 16.714,-14.987 26.926,-17.198 h 0.14 c 1.412,-0.306 2.618,-0.529 3.807,-0.705 1.146,-0.161 2.6,-0.298 4.234,-0.423 11.926,-0.908 24.31,-2.467 37.496,-0.705 0.026,-0.996 0.107,-1.993 0.141,-2.959 0.045,-0.984 0.234,-1.949 0.282,-2.819 3.058,-55.31 29.628,-112.38 38.769,-156.63 1.111,-5.223 6.244,-8.556 11.468,-7.448 2.454,0.525 4.609,1.98 6.014,4.065 5.41,-16.548 11.851,-31.231 18.75,-44.263 2.468,-4.688 8.256,-6.508 12.971,-4.089 2.105,-2.546 5.009,-6.401 8.593,-12.547 8.618,-14.759 17.985,-34.734 31.58,-45.959 4.063,-3.472 10.165,-2.983 13.631,1.075 2.032,2.383 2.789,5.612 2.014,8.652 -1.939,8.045 -1.6,7.988 -1.834,10.851 77.443,-107.8 101.08,-239.4 112.51,-323.69 0.151,-1.079 -1.088,-12.762 -3.659,-23.684 -2.574,-10.917 -5.886,-22.482 -8.036,-29.323 -2.044,-6.498 -1.737,-13.442 0.704,-19.31 2.445,-5.869 6.688,-10.688 11.702,-14.525 10.035,-7.671 23.499,-12.331 38.627,-15.363 30.259,-6.062 66.996,-4.969 93.611,6.204 0.048,0.047 0.092,0.091 0.137,0.135 1.994,0.847 4.043,1.68 6.202,2.82 0.05,0.049 0.097,0.097 0.142,0.142 4.04,2.145 7.877,4.652 11.278,7.616 v 0.137 c 0.915,0.806 0.965,0.868 0.14,0.141 4.067,3.591 7.626,7.864 10.011,12.83 0.017,0.039 -0.019,0.105 0,0.136 0,0.013 0.126,0.123 0.14,0.14 0,0.019 -0.014,0.124 0,0.142 0.616,1.34 0.388,3.079 0.847,4.512 0.021,-0.428 0.105,-1.072 0,-1.833 0.091,0.722 0.158,1.277 0.14,1.691 -0.018,0.396 0.026,0.37 0,0.564 1.128,3.692 2.256,7.424 2.115,11.556 h 0.282 c 0,0 1.506,77.463 -6.768,118.15 -2.886,14.169 -8.172,31.267 -13.111,47.933 2.441,-1.137 4.9,-2.494 7.332,-3.524 0.149,-0.063 0.277,-0.217 0.423,-0.283 3.626,-2.423 7.317,-4.551 10.578,-6.339 7.876,-4.331 15.815,-7.036 23.683,-8.177 0.274,-0.035 0.634,-0.075 1.128,-0.137 h 0.137 c -0.145,0.018 0.216,-0.049 1.127,-0.14 1.74,-0.186 2.768,-0.111 3.248,-0.137 1.886,-0.102 4.309,-0.286 7.045,-0.137 1.832,0.093 3.449,0.23 4.934,0.423 1.621,0.212 3.291,0.502 4.939,0.846 0.832,0.18 1.013,0.238 0.562,0.136 2.874,0.626 5.909,1.353 8.882,2.393 1.595,0.572 3.089,1.233 4.511,1.833 3.719,1.585 7.164,3.427 10.43,5.361 2.36,1.401 4.423,2.899 6.344,4.234 -0.935,-0.657 -0.564,-0.577 0.849,0.423 2.459,1.753 4.754,3.577 6.903,5.357 1.992,1.656 4.014,3.437 6.068,5.357 0.709,0.679 1.119,1.128 1.127,1.128 1.626,1.577 3.252,3.155 4.934,4.939 0.658,0.709 1.22,1.33 1.693,1.828 1.427,1.582 2.572,3.098 3.662,4.375 0.729,0.858 1.545,1.775 2.394,2.819 0.692,0.86 1.666,1.895 2.821,3.384 0.674,0.877 1.109,1.489 1.264,1.691 1.251,1.674 2.327,3.291 3.384,4.789 1.092,1.569 2.109,3.005 3.106,4.511 0.757,1.172 0.277,0.476 0.136,0.283 0.039,0.053 0.106,0.088 0.141,0.141 1.41,2.163 2.873,4.467 4.228,6.767 -0.316,-0.547 0.01,-0.093 0.565,0.845 0.071,0.115 -0.074,0.01 0,0.142 1.207,2.07 2.392,4.044 3.385,5.921 0.871,1.651 0.632,3.392 1.127,5.075 5.22,-8.089 11.036,-14.644 17.623,-19.174 12.519,-8.616 26.82,-10.366 39.896,-8.321 26.152,4.097 48.999,21.724 61.609,32.57 11.559,9.944 12.766,25.143 12.969,39.898 0.199,14.603 -0.956,30.138 0.705,43.844 16.143,49.607 29.364,96.315 49.342,148.03 1.644,4.254 2.142,9.217 0.565,13.534 -1.569,4.317 -4.643,7.086 -7.19,8.743 -3.189,2.074 -3.986,2.161 -5.499,2.819 3.49,76.896 -0.845,122.5 -8.882,154.09 -0.342,1.339 -0.616,2.562 -0.99,3.948 -1.405,5.161 -2.939,9.595 -4.512,14.098 12.428,10.223 23.606,23.301 33.7,39.615 2.774,4.56 1.337,10.505 -3.225,13.285 -0.795,0.486 -1.657,0.852 -2.557,1.092 l 7.045,33.13 c 0.234,1.214 0.234,2.454 0,3.664 v 0.141 c 4.383,4.879 7.705,9.668 8.745,14.236 1.538,6.807 0.881,10.873 1.551,13.535 1.286,5.182 -1.872,10.425 -7.049,11.711 -0.917,0.23 -1.868,0.32 -2.811,0.276 -0.105,4.031 -0.185,8.12 -0.991,11.701 -2.264,10.093 -5.952,18.678 -7.468,26.22 -1.074,5.234 -6.186,8.604 -11.409,7.53 -1.561,-0.315 -3.015,-1.021 -4.24,-2.034 -26.927,-22.264 -51.562,-43.36 -89.376,-53.008 -1.118,0.987 -2.212,1.969 -3.383,2.958 -0.832,0.703 -1.278,1.159 -1.406,1.267 -2.026,1.683 -4.163,3.366 -6.344,5.076 -0.444,0.347 -0.84,0.656 -1.268,0.989 -2.299,1.773 -4.643,3.387 -6.768,4.936 -0.114,0.084 -0.459,0.504 -1.127,0.986 -2.22,1.598 -4.555,3.25 -7.048,4.937 -0.362,0.243 -0.631,0.418 -0.846,0.564 -2.477,1.659 -4.891,3.256 -7.331,4.791 -0.574,0.359 -0.935,0.478 -0.852,0.423 -0.523,0.33 -0.743,0.451 -0.7,0.426 -2.414,1.501 -4.789,3.021 -7.331,4.511 -2.727,1.597 -5.317,3.031 -7.757,4.369 1.889,-1.187 2.564,-2.431 2.537,-2.394 -0.031,0.036 -0.797,1.308 -2.819,2.536 -0.058,0.035 -0.084,-0.038 -0.142,0 -0.111,0.062 -0.027,0.075 -0.141,0.138 -2.727,1.499 -5.5987,3.045 -8.4577,4.511 -96.796,49.742 -171.54,44.412 -258.7,49.767 -29.214,41.936 -67.57,81.947 -116.59,119.55 -0.772,1.678 -1.463,3.384 -2.256,4.933 -0.436,0.853 -0.911,1.774 -1.408,2.679 -0.772,1.411 -1.517,2.98 -2.534,4.653 h -0.142 c 0.82,-1.344 0.789,-1.236 -0.14,0.279 -1.391,2.269 -2.864,4.481 -4.372,6.629 -1.686,2.394 -3.408,4.646 -5.074,6.766 -11.983,15.244 -26.813,28.949 -41.307,42.294 l -0.277,0.14 -28.76,28.76 v -0.14 c -0.022,0.021 -0.119,-0.023 -0.14,0 -2.719,2.68 -5.679,6.179 -12.29,5.622"
         id="path62" /><path
         inkscape:connector-curvature="0"
         style="fill:url(#linearGradient1882);fill-opacity:1"
         d="m 495.33,1767.6 c -8.706,-0.739 -0.789,-47.23 -1.691,-57.52 -1.385,-15.775 -9.684,-24.069 -14.522,-30.592 l -70.912,17.623 c 4.669,-7.179 17.396,-15.601 10.572,-20.865 -22.97,-3.765 -40.716,-0.011 -44.408,4.789 15.641,-19.096 14.362,-24.258 6.486,-24.108 l -16.918,-7.331 c -15.348,13.177 -36.214,29.237 -55.545,44.408 -13.728,10.779 -18.923,-31.177 -14.521,-48.354 l 16.071,-62.88 c -7.705,-34.67 -9.939,-71.203 -11.278,-107.99 l 9.728,17.765 c -5.927,-33.674 -10.222,-65.099 -9.728,-90.226 13.094,16.994 13.243,5.273 16.213,0 22.557,-56.943 33.618,-72.307 57.941,-74.157 15.984,-1.214 31.09,-3.123 46.664,1.691 -3.039,-57.083 28.188,-121.18 38.775,-172.42 4.833,14.501 11.977,13.675 11.977,13.675 5.033,-23.749 14.174,-41.354 23.409,-58.79 10.11,18.846 29.935,-42.448 50.751,-59.635 -6.943,28.795 -2.15,25.244 5.639,32.989 87.54,-112.53 112.1,-254.04 124.06,-342.3 1.406,-10.349 -7.67,-43.087 -12.129,-57.237 -15.385,-48.929 160.47,-58.154 157.2,0.845 0,0 1.239,78.076 -6.488,116.03 -19.578,96.223 -99.955,277.02 -99.955,277.02 l 45.117,11.277 c 23.367,-19.596 60.217,-32.178 92.762,-34.54 -8.161,-47.391 -1.473,-56.876 -24.248,-112.08 -31.37,-76.032 -13.721,-82.822 5.638,-93.47 48.901,-26.9 92.605,23.446 110.39,57.238 9.975,18.957 -18.161,48.012 -12.125,75 27.271,121.88 14.018,98.765 21.006,148.17 36.91,-15.718 40.443,-17.454 54.7,-16.917 -4.864,-23.094 -2.82,-45.025 -19.315,-70.067 -29.182,-44.293 -48.1,-75.26 -37.782,-106.29 27.508,-82.776 92.006,-37.566 116.03,-16.917 15.507,13.327 6.617,47.762 10.433,78.098 16.256,49.854 29.561,97.205 49.902,149.86 4.366,11.296 -7.892,11.558 -12.829,16.069 5.158,102.9 -3.709,149.11 -15.791,180.45 13.324,9.463 25.478,23.805 36.655,41.868 l -9.163,1.128 9.163,43.284 -14.802,-4.512 -44.408,-33.976 c -25.738,48.164 -66.34,80.496 -109.96,102.91 -96.446,49.563 -169.44,43.151 -259.4,49.061 -29.222,42.922 -68.427,83.885 -119.13,122.51 -10.405,25.353 -33.407,46.505 -56.391,67.669 l -29.046,28.898 c -1.991,2.014 -3.538,2.937 -4.784,2.835"
         id="path100" /><g
         transform="translate(-27.153,-271.53)"
         style="fill:#ff5555"
         id="g102"><g
           clip-path="url(#clipPath106)"
           style="fill:#ff5555"
           id="g104"><g
             clip-path="url(#clipPath112)"
             style="fill:#ff5555"
             id="g110"><g
               style="fill:#ff5555"
               id="g126"><g
                 clip-path="url(#clipPath118)"
                 style="opacity:0.3;fill:#ff5555"
                 id="g128"><g
                   style="fill:#ff5555"
                   id="g132"><g
                     clip-path="url(#clipPath122)"
                     style="fill:#ff5555"
                     id="g134"><path
                       d="m 325.86,1948.5 c -0.49,-13.494 -4.322,-30.613 0,-30.613 21.785,-1.95 26.402,-24.494 38.667,-37.865 l 22.558,29.807 c 0.004,0 -59.82,77.578 -61.225,38.671"
                       inkscape:connector-curvature="0"
                       style="fill:url(#linearGradient3486);fill-opacity:1"
                       id="path136" /></g></g></g></g></g></g></g><g
         transform="translate(-27.153,-271.53)"
         style="fill:#ff5555"
         id="g162"><g
           clip-path="url(#clipPath154)"
           style="opacity:0.3;fill:#ff5555"
           id="g164"><g
             style="fill:#ff5555"
             id="g168"><g
               clip-path="url(#clipPath158)"
               style="fill:#ff5555"
               id="g170"><path
                 inkscape:connector-curvature="0"
                 style="fill:url(#linearGradient3494);fill-opacity:1"
                 d="m 523.23,2028.3 c -1.44,-40.029 0,-91.838 0,-91.838 l 57.197,-0.808 c -7.119,14.415 -3.347,30.195 -25.771,42.696 -5.657,10.44 -15.818,7.526 -13.701,35.446 0,0 -17.356,24.803 -17.725,14.504"
                 id="path172" /></g></g></g></g><g
         transform="translate(-27.153,-271.53)"
         style="fill:#483e37"
         id="g300"><g
           clip-path="url(#clipPath292)"
           style="opacity:0.5;fill:#483e37"
           id="g302"><g
             style="fill:#483e37"
             id="g306"><g
               clip-path="url(#clipPath296)"
               style="fill:#483e37"
               id="g308"><path
                 inkscape:connector-curvature="0"
                 style="fill:#483e37"
                 d="m 957.39,1431.7 c -22.578,-42.134 -82.556,-63.215 -125.15,-66.355 6.9,-8.212 -9.061,-17.971 1.247,-28.033 14.565,-4.815 29.817,-7.975 44.268,-9.024 -0.019,-0.101 0.018,-0.18 0,-0.277 7.092,-0.735 13.393,-1.229 16.494,-1.409 7.12,-60.834 -11.543,-141.43 -17.623,-210.34 41.616,-8.425 77.275,34.023 92.907,63.72 9.974,18.959 -18.161,48.013 -12.125,75.001 16.423,46.362 14.556,104.32 21.703,149.32 -7.618,5.076 -13.112,13.398 -21.717,27.402"
                 id="path310" /></g></g></g></g><path
         inkscape:connector-curvature="0"
         style="fill:url(#linearGradient3456);stroke:#060404;stroke-opacity:1;fill-opacity:1;stroke-width:4.65319897;stroke-miterlimit:4;stroke-dasharray:none"
         d="m 479.12,1679.5 -70.916,17.623 c 4.669,-7.179 17.401,-15.601 10.578,-20.865 -22.971,-3.765 -40.713,-0.011 -44.414,4.789 15.645,-19.096 14.367,-24.258 6.49,-24.108 l -16.918,-7.331 c -8.603,7.384 -18.904,15.744 -29.746,24.248 l 19.737,-31.439 c -7.463,-0.531 -18.146,-0.139 -21.57,-19.313 h -10.287 c 5.886,-11.08 7.728,-20.812 0,-27.347 l -14.098,-23.404 c -6.008,-31.536 -8.097,-64.428 -9.304,-97.559 l 9.728,17.767 c -5.926,-33.673 -10.221,-65.1 -9.728,-90.229 13.093,16.996 13.242,5.275 16.212,0 3.445,-8.685 6.45,-16.132 9.446,-22.98 l 13.675,58.647 c -12.344,4.558 -13.811,-6.338 -20.443,15.366 l -5.212,-1.127 20.58,82.052 c 25.042,40.593 47.554,-0.786 63.159,-17.198 3.726,-3.92 21.093,2.432 24.248,11.558 l 7.049,34.116 c 12.511,36.203 54.099,20.511 78.097,8.459 41.021,-22.522 61.877,-46.383 67.812,-75.706 3.794,-18.744 -15.948,-26.418 -30.175,-34.116 l 11.42,-5.777 26.644,2.819 c -0.819,-8.78 -6.017,-15.966 -11.279,-23.261 11.025,3.791 22.236,7.494 27.352,14.239 l -2.397,-27.348 c 10.485,2.535 17.41,11.607 34.821,1.692 l 3.384,-8.598 6.344,11.418 c 12.644,-13.101 13.411,-26.23 19.315,-39.336 l 8.594,27.348 4.511,-9.725 c 14.063,9.531 23.971,6.879 35.24,8.033 22.629,-36.022 3.244,-69.505 2.963,-104.18 11.062,5.076 19.957,12.123 24.953,23.259 l -2.256,-15.364 c 13.965,7.8 28.754,15.149 35.385,27.348 l -0.564,-31.299 9.023,9.161 c 2.789,-9.113 0.995,-18.235 -2.256,-27.348 l 22.28,11.279 -3.948,-24.387 10.15,8.458 c 26.29,-33.249 32.928,-71.978 32.003,-112.78 l 11.841,22.836 c 7.98,17.251 15.995,42.845 23.962,50.612 4.09,31.522 -1.497,63.077 -6.202,94.599 10.41,0.749 15.763,-4.353 17.058,-14.24 l 2.82,11.984 c 9.401,5.864 19.821,3.424 30.734,-2.819 2.084,-19.26 4.176,-38.553 13.674,-51.881 l 21.147,30.172 c 12.592,-16.124 15.471,-35.031 17.622,-54.136 l 12.547,13.109 c 4.89,-15.234 16.072,-24.134 28.474,-31.859 l -1.128,25.66 c 3.618,-7.52 7.296,-14.912 15.367,-16.492 0,0 42.105,-76.373 60.904,-80.356 10.017,-2.126 20.814,-2.927 28.895,-3.243 6.269,136.45 -12.71,170.76 -30.168,205.97 12.599,8.929 30.291,22.463 38.345,33.697 4.969,6.932 9.162,23.962 9.162,23.962 16.549,12.503 11.244,19.931 13.676,29.603 l -13.676,-9.161 c 10.205,20.572 -1.064,36.884 -4.65,54.7 -27.87,-23.044 -54.824,-46.814 -97.84,-56.392 -19.209,17.598 -40.875,31.756 -63.299,43.28 -96.447,49.564 -169.45,43.154 -259.4,49.061 -29.219,42.923 -68.428,83.886 -119.13,122.51 -3.814,9.302 -9.349,17.987 -15.931,26.364 l -14.519,3.665 c 8.528,-8.645 18.485,-12.417 13.11,-22.697 -8.819,-2.889 -11.824,1.523 -17.199,-2.256 -6.419,13.528 -18.142,23.935 -22.134,26.788 -3.983,2.846 6.661,-11.735 3.383,-16.07 -3.436,-4.554 -13.124,-5.247 -17.054,-1.128 -41.112,5.235 2.653,46.761 -36.073,-3.388"
         id="path174" /><path
         inkscape:connector-curvature="0"
         style="fill:url(#linearGradient3502);fill-opacity:1;stroke:#1f4555;stroke-opacity:1"
         d="m 482.89,1516.8 c 2.758,-13.29 -1.365,-25.381 -9.207,-27.018 -7.844,-1.634 -16.434,7.814 -19.184,21.103 -2.748,13.292 1.368,25.381 9.209,27.016 7.564,1.577 15.886,-7.184 18.917,-19.914"
         id="path176" /><path
         inkscape:connector-curvature="0"
         style="fill:url(#linearGradient3510);fill-opacity:1"
         d="m 386.21,1495 c 2.76,-13.287 -1.365,-25.381 -9.203,-27.015 -7.842,-1.632 -16.428,7.816 -19.186,21.105 -2.754,13.285 1.366,25.381 9.207,27.014 7.566,1.579 15.888,-7.182 18.918,-19.915"
         id="path178" /><path
         inkscape:connector-curvature="0"
         style="fill:#ffffff"
         d="m 371.32,1503.3 c -0.061,-3.875 -1.969,-6.983 -4.25,-6.952 -2.287,0.031 -4.089,3.203 -4.023,7.077 0.062,3.875 1.969,6.985 4.255,6.952 2.208,-0.035 3.975,-2.995 4.028,-6.729"
         id="path180" /><path
         inkscape:connector-curvature="0"
         style="fill:#ffffff"
         d="m 467.59,1525.5 c -0.064,-3.876 -1.974,-6.984 -4.26,-6.952 -2.287,0.032 -4.089,3.204 -4.021,7.078 0.06,3.874 1.969,6.983 4.25,6.952 2.208,-0.037 3.978,-2.995 4.021,-6.731"
         id="path182" /><path
         inkscape:connector-curvature="0"
         style="fill:url(#linearGradient3476);fill-opacity:1"
         d="m 518.63,1378.9 c -59.599,8.578 -126.48,-16.944 -127.28,-25.777 -0.45,-4.926 -1.687,-14.545 41.087,2.419 -1.211,-14.23 0.123,-27.394 12.08,-32.225 17.781,-7.188 40.113,3.595 58.81,16.109 18.887,12.642 11.286,26.474 15.305,39.474"
         id="path184" /><path
         inkscape:connector-curvature="0"
         style="fill:#f4e3d7"
         d="m 325.03,1382.5 c 25.244,39.263 38.03,87.16 111.24,76.232 8.045,16.539 11.279,21.187 23.805,32.172 0,0 -20.235,3.139 -44.223,-1.511 -30.571,-5.935 -58.887,-28.002 -75.38,-46.722 -19.468,-22.096 -20.91,-41.877 -15.447,-60.171"
         id="path198" /><g
         transform="translate(-27.153,-271.53)"
         style="fill:#a05a2c"
         id="g224"><g
           clip-path="url(#clipPath216)"
           style="opacity:0.3;fill:#a05a2c"
           id="g226"><g
             style="fill:#a05a2c"
             id="g230"><g
               clip-path="url(#clipPath220)"
               style="fill:#a05a2c"
               id="g232"><path
                 inkscape:connector-curvature="0"
                 style="fill:#a05a2c"
                 d="m 536.38,1748.1 c 34.143,-12.027 44.765,-69.701 0.126,-84.561 -30.711,-0.293 -40.936,-2.324 -72.951,-10.71 -49.709,-18.325 -69.666,-29.291 -70.35,-52.16 2.151,-0.465 4.389,-0.807 6.768,-0.986 15.975,-1.215 31.09,-3.122 46.664,1.691 -0.299,-5.652 -0.176,-11.433 0.141,-17.197 9.152,-5.007 28.998,-13.517 57.093,-12.267 42.412,1.885 62.457,58.788 62.457,58.788 l -13.256,3.663 c -4.577,-15.51 -6.507,-29.198 -32.429,-43.283 -13.394,-7.276 -17.306,-12.162 -43.136,-6.203 -14.516,3.349 -8.198,31.953 -5.78,47.933 21.636,6.046 33.187,17.084 66.406,17.342 -0.581,-1.575 -1.181,-3.185 -1.833,-4.791 l 50.188,7.047 c 33.632,71.089 -22.019,93.072 -36.627,99.926 -14.609,6.857 -50.197,12.659 -84.614,7.494 0.933,-6.47 48.277,-3.668 71.133,-11.726"
                 id="path234" /></g></g></g></g><path
         inkscape:connector-curvature="0"
         style="fill:url(#linearGradient3444);stroke:#740000;stroke-opacity:1;stroke-width:6.97979846;stroke-miterlimit:4;stroke-dasharray:none;fill-opacity:1"
         d="m 476.75,1380.5 c 18.671,-6.359 32.263,-21.252 51.21,-26.272 18.641,-4.946 45.069,0.838 62.375,-10.783 14.248,-9.565 50.242,10.723 37.865,23.36 -12.453,12.717 -22.472,22.372 -66.06,24.974 l -36.25,-12.889 c -14.698,0.947 -27.364,2.202 -49.14,1.61"
         id="path236" /><path
         inkscape:connector-curvature="0"
         style="fill:url(#linearGradient3468);fill-opacity:1"
         d="m 355.1,1436.9 c 16.336,21.136 47.214,18.872 58.811,10.877 5.884,-4.055 5.734,-32.951 -9.666,-43.903 -7.086,-5.04 -14.582,-11.706 -29.008,-8.058 -15.872,6.297 -27.138,32.022 -20.137,41.084"
         id="path238" /><g
         transform="translate(-27.153,-271.53)"
         style="fill:#ffd42a"
         id="g356"><g
           clip-path="url(#clipPath360)"
           style="fill:#ffd42a"
           id="g358"><g
             clip-path="url(#clipPath366)"
             style="fill:#ffd42a"
             id="g364"><g
               style="fill:#ffd42a"
               id="g380"><g
                 clip-path="url(#clipPath372)"
                 style="opacity:0.5;fill:#ffd42a"
                 id="g382"><g
                   style="fill:#ffd42a"
                   id="g386"><g
                     clip-path="url(#clipPath376)"
                     style="fill:#ffd42a"
                     id="g388"><path
                       d="m 1108.8,1647.6 c 3.2445,-2.2455 -0.2372,2.3279 14.558,-31.353 9.3809,7.7401 12.668,10.193 20.071,17.902 -15.038,-11.856 -2.0637,-16.635 -29.666,17.365 z"
                       inkscape:connector-curvature="0"
                       style="fill:#ffd42a"
                       sodipodi:nodetypes="ccccc"
                       id="path390" /></g></g></g></g></g></g></g><g
         transform="translate(-27.153,-271.53)"
         id="g392"><g
           clip-path="url(#clipPath396)"
           id="g394"><g
             clip-path="url(#clipPath402)"
             id="g400"><g
               id="g416"><g
                 clip-path="url(#clipPath408)"
                 style="opacity:0.5"
                 id="g418"><g
                   id="g422"><g
                     clip-path="url(#clipPath412)"
                     id="g424"><path
                       d="m 750.31,1801.9 c -6.37,5.915 -16.054,13.272 -16.054,13.272 11.049,-15.14 16.908,-39.97 22.575,-55.781 -9.877,2.7 -20.672,2.687 -31.272,3.233 0.66,-6.026 0.371,-10.194 -2.538,-15.648 l -16.776,-16.779 c 4.634,-2.648 9.652,-11.816 10.829,-15.01 1.18,-3.194 5.296,-27.15 5.296,-27.15 7.978,5.127 6.131,7.296 7.472,21.29 l -9.006,19.864 c 4.925,3.735 11.877,2.874 13.393,13.394 l 7.807,9.836 c 12.617,0.193 24.566,-0.056 34.91,-1.377 0,0 -14.432,39.529 -26.636,50.856"
                       inkscape:connector-curvature="0"
                       style="fill:#000000"
                       id="path426" /></g></g></g></g></g></g></g><g
         transform="translate(-27.153,-271.53)"
         style="opacity:0.5;fill:#550000;stroke:#550000;stroke-opacity:0.43921569;fill-opacity:0.43921569"
         id="g458"><g
           clip-path="url(#clipPath448)"
           style="fill:#550000;stroke:#550000;stroke-opacity:0.43921569;fill-opacity:0.43921569"
           id="g460"><path
             inkscape:connector-curvature="0"
             style="fill:#550000;fill-opacity:0.43921569;stroke:#550000;stroke-opacity:0.43921569;stroke-width:1.00043778;stroke-miterlimit:4;stroke-dasharray:none"
             d="m 589.31,1663.4 -36.226,-12.97 c -14.693,0.948 -27.421,2.282 -49.203,1.692 18.676,-6.358 32.227,-21.339 51.181,-26.366 1.876,-0.5 3.894,-0.819 5.915,-1.127 -3.893,6.365 4.826,12.379 13.258,16.494 14.282,6.943 27.234,-2.874 38.768,-2.82 -9.85,6.258 -20.706,12.807 -26.221,17.621 16.137,9.059 76.41,-14.585 58.083,-32.427 -7.934,-7.728 -12.614,-9.347 -15.649,-10.854 15.957,1.291 35.765,15.911 26.081,25.799 -12.459,12.719 -22.398,22.354 -65.987,24.958"
             id="path462" /></g></g></g><rect
       style="fill:#000000;fill-opacity:1;stroke:none;stroke-width:8.00579548;stroke-linejoin:round;stroke-miterlimit:4;stroke-dasharray:none;stroke-opacity:1;paint-order:fill markers stroke"
       id="rect1794"
       width="135.04385"
       height="2.3451898"
       x="69.756149"
       y="-2.3451898"
       transform="scale(1,-1)" /><rect
       style="fill:#000000;fill-opacity:1;fill-rule:nonzero;stroke:none;stroke-width:3.38665962;stroke-linejoin:round;stroke-miterlimit:4;stroke-dasharray:none;stroke-opacity:1;paint-order:markers stroke fill"
       id="rect1818"
       width="2.3492606"
       height="118.98299"
       x="202.45073"
       y="-120.50311"
       transform="scale(1,-1)" /></g><metadata
     id="metadata224"><rdf:RDF><cc:Work><dc:format>image/svg+xml</dc:format><dc:type
           rdf:resource="http://purl.org/dc/dcmitype/StillImage" /><cc:license
           rdf:resource="http://creativecommons.org/publicdomain/zero/1.0/" /><dc:publisher><cc:Agent
             rdf:about="http://openclipart.org/"><dc:title>Openclipart</dc:title></cc:Agent></dc:publisher><dc:title /></cc:Work><cc:License
         rdf:about="http://creativecommons.org/publicdomain/zero/1.0/"><cc:permits
           rdf:resource="http://creativecommons.org/ns#Reproduction" /><cc:permits
           rdf:resource="http://creativecommons.org/ns#Distribution" /><cc:permits
           rdf:resource="http://creativecommons.org/ns#DerivativeWorks" /></cc:License></rdf:RDF></metadata></svg>